<mxfile host="app.diagrams.net" modified="2023-03-26T15:14:16.124Z" agent="Mozilla/5.0 (Macintosh; Intel Mac OS X 10_15_7) AppleWebKit/537.36 (KHTML, like Gecko) Chrome/110.0.0.0 Safari/537.36" etag="Ah_P78iyeYZKuoiDB7lO" version="21.1.1" type="github">
  <diagram name="第 1 页" id="aV4bgYBK1LduxahTIi1U">
    <mxGraphModel dx="1063" dy="611" grid="1" gridSize="10" guides="1" tooltips="1" connect="1" arrows="1" fold="1" page="1" pageScale="1" pageWidth="1200" pageHeight="1600" math="0" shadow="0">
      <root>
        <mxCell id="0" />
        <mxCell id="1" parent="0" />
      </root>
    </mxGraphModel>
  </diagram>
</mxfile>
